<mxfile host="app.diagrams.net" agent="Mozilla/5.0 (Windows NT 10.0; Win64; x64) AppleWebKit/537.36 (KHTML, like Gecko) Chrome/141.0.0.0 Safari/537.36" version="28.2.5">
  <diagram name="Page-1" id="tOIW24pAtOSCwyQ4gi1o">
    <mxGraphModel dx="2892" dy="1040" grid="1" gridSize="10" guides="1" tooltips="1" connect="1" arrows="1" fold="1" page="1" pageScale="1" pageWidth="850" pageHeight="1100" math="0" shadow="0">
      <root>
        <mxCell id="0" />
        <mxCell id="1" parent="0" />
        <mxCell id="2YyOYfQbQqB_2xkgUg5d-1" value="UTILIZADOR" style="whiteSpace=wrap;html=1;align=center;" parent="1" vertex="1">
          <mxGeometry x="-110" y="65" width="140" height="50" as="geometry" />
        </mxCell>
        <mxCell id="2YyOYfQbQqB_2xkgUg5d-3" value="idUtilizador" style="ellipse;whiteSpace=wrap;html=1;align=center;fontStyle=4;" parent="1" vertex="1">
          <mxGeometry x="-145" y="20" width="80" height="25" as="geometry" />
        </mxCell>
        <mxCell id="2YyOYfQbQqB_2xkgUg5d-5" value="Nickname" style="ellipse;whiteSpace=wrap;html=1;align=center;" parent="1" vertex="1">
          <mxGeometry x="-60" y="20" width="80" height="25" as="geometry" />
        </mxCell>
        <mxCell id="2YyOYfQbQqB_2xkgUg5d-7" value="" style="endArrow=none;html=1;rounded=0;exitX=0.5;exitY=1;exitDx=0;exitDy=0;entryX=0;entryY=0;entryDx=0;entryDy=0;" parent="1" source="2YyOYfQbQqB_2xkgUg5d-3" target="2YyOYfQbQqB_2xkgUg5d-1" edge="1">
          <mxGeometry relative="1" as="geometry">
            <mxPoint x="120" y="225" as="sourcePoint" />
            <mxPoint x="280" y="225" as="targetPoint" />
          </mxGeometry>
        </mxCell>
        <mxCell id="2YyOYfQbQqB_2xkgUg5d-8" value="" style="endArrow=none;html=1;rounded=0;exitX=0.5;exitY=1;exitDx=0;exitDy=0;entryX=0.5;entryY=0;entryDx=0;entryDy=0;" parent="1" source="2YyOYfQbQqB_2xkgUg5d-5" target="2YyOYfQbQqB_2xkgUg5d-1" edge="1">
          <mxGeometry relative="1" as="geometry">
            <mxPoint x="120" y="225" as="sourcePoint" />
            <mxPoint x="280" y="225" as="targetPoint" />
          </mxGeometry>
        </mxCell>
        <mxCell id="2YyOYfQbQqB_2xkgUg5d-9" value="" style="endArrow=none;html=1;rounded=0;exitX=1;exitY=0;exitDx=0;exitDy=0;entryX=0.5;entryY=1;entryDx=0;entryDy=0;" parent="1" source="2YyOYfQbQqB_2xkgUg5d-1" target="7O8cQRcP90IHf1YLFJv2-75" edge="1">
          <mxGeometry relative="1" as="geometry">
            <mxPoint x="120" y="225" as="sourcePoint" />
            <mxPoint x="95" y="45" as="targetPoint" />
          </mxGeometry>
        </mxCell>
        <mxCell id="2YyOYfQbQqB_2xkgUg5d-10" value="d" style="ellipse;whiteSpace=wrap;html=1;align=center;" parent="1" vertex="1">
          <mxGeometry x="-55" y="350" width="30" height="30" as="geometry" />
        </mxCell>
        <mxCell id="2YyOYfQbQqB_2xkgUg5d-11" value="" style="shape=link;html=1;rounded=0;exitX=0.5;exitY=0;exitDx=0;exitDy=0;entryX=0.5;entryY=1;entryDx=0;entryDy=0;" parent="1" source="2YyOYfQbQqB_2xkgUg5d-10" target="2YyOYfQbQqB_2xkgUg5d-1" edge="1">
          <mxGeometry relative="1" as="geometry">
            <mxPoint x="320" y="230" as="sourcePoint" />
            <mxPoint x="480" y="230" as="targetPoint" />
          </mxGeometry>
        </mxCell>
        <mxCell id="2YyOYfQbQqB_2xkgUg5d-13" value="PSICÃ“LOGO" style="whiteSpace=wrap;html=1;align=center;" parent="1" vertex="1">
          <mxGeometry x="-155" y="440" width="100" height="40" as="geometry" />
        </mxCell>
        <mxCell id="2YyOYfQbQqB_2xkgUg5d-14" value="MODERADOR" style="whiteSpace=wrap;html=1;align=center;" parent="1" vertex="1">
          <mxGeometry x="-25" y="440" width="100" height="40" as="geometry" />
        </mxCell>
        <mxCell id="2YyOYfQbQqB_2xkgUg5d-16" value="" style="endArrow=none;html=1;rounded=0;exitX=0;exitY=1;exitDx=0;exitDy=0;entryX=0.5;entryY=0;entryDx=0;entryDy=0;" parent="1" source="2YyOYfQbQqB_2xkgUg5d-10" target="2YyOYfQbQqB_2xkgUg5d-13" edge="1">
          <mxGeometry relative="1" as="geometry">
            <mxPoint x="40" y="260" as="sourcePoint" />
            <mxPoint x="200" y="260" as="targetPoint" />
          </mxGeometry>
        </mxCell>
        <mxCell id="2YyOYfQbQqB_2xkgUg5d-17" value="" style="endArrow=none;html=1;rounded=0;exitX=1;exitY=1;exitDx=0;exitDy=0;entryX=0.5;entryY=0;entryDx=0;entryDy=0;" parent="1" source="2YyOYfQbQqB_2xkgUg5d-10" target="2YyOYfQbQqB_2xkgUg5d-14" edge="1">
          <mxGeometry relative="1" as="geometry">
            <mxPoint x="40" y="260" as="sourcePoint" />
            <mxPoint x="200" y="260" as="targetPoint" />
          </mxGeometry>
        </mxCell>
        <mxCell id="2YyOYfQbQqB_2xkgUg5d-18" value="" style="shape=requiredInterface;html=1;verticalLabelPosition=bottom;sketch=0;direction=south;rotation=-40;" parent="1" vertex="1">
          <mxGeometry x="-27" y="385" width="20" height="10" as="geometry" />
        </mxCell>
        <mxCell id="2YyOYfQbQqB_2xkgUg5d-22" value="" style="shape=requiredInterface;html=1;verticalLabelPosition=bottom;sketch=0;direction=south;rotation=35;" parent="1" vertex="1">
          <mxGeometry x="-73" y="386" width="20" height="10" as="geometry" />
        </mxCell>
        <mxCell id="2YyOYfQbQqB_2xkgUg5d-23" value="NumCedula" style="ellipse;whiteSpace=wrap;html=1;align=center;" parent="1" vertex="1">
          <mxGeometry x="-235" y="505" width="80" height="20" as="geometry" />
        </mxCell>
        <mxCell id="2YyOYfQbQqB_2xkgUg5d-25" value="" style="endArrow=none;html=1;rounded=0;exitX=0;exitY=1;exitDx=0;exitDy=0;entryX=0.5;entryY=0;entryDx=0;entryDy=0;" parent="1" source="2YyOYfQbQqB_2xkgUg5d-13" target="2YyOYfQbQqB_2xkgUg5d-23" edge="1">
          <mxGeometry relative="1" as="geometry">
            <mxPoint y="450" as="sourcePoint" />
            <mxPoint x="160" y="450" as="targetPoint" />
          </mxGeometry>
        </mxCell>
        <mxCell id="2YyOYfQbQqB_2xkgUg5d-26" value="AreaEspecializacao" style="ellipse;whiteSpace=wrap;html=1;align=center;" parent="1" vertex="1">
          <mxGeometry x="-145" y="505" width="112" height="20" as="geometry" />
        </mxCell>
        <mxCell id="2YyOYfQbQqB_2xkgUg5d-27" value="" style="endArrow=none;html=1;rounded=0;exitX=0.5;exitY=1;exitDx=0;exitDy=0;entryX=0.5;entryY=0;entryDx=0;entryDy=0;" parent="1" source="2YyOYfQbQqB_2xkgUg5d-13" target="2YyOYfQbQqB_2xkgUg5d-26" edge="1">
          <mxGeometry relative="1" as="geometry">
            <mxPoint x="-32" y="480" as="sourcePoint" />
            <mxPoint x="283" y="450" as="targetPoint" />
          </mxGeometry>
        </mxCell>
        <mxCell id="2YyOYfQbQqB_2xkgUg5d-28" value="AreaModeracao" style="ellipse;whiteSpace=wrap;html=1;align=center;" parent="1" vertex="1">
          <mxGeometry x="80" y="500" width="100" height="20" as="geometry" />
        </mxCell>
        <mxCell id="2YyOYfQbQqB_2xkgUg5d-29" value="" style="endArrow=none;html=1;rounded=0;exitX=0.5;exitY=1;exitDx=0;exitDy=0;entryX=0.5;entryY=0;entryDx=0;entryDy=0;" parent="1" target="2YyOYfQbQqB_2xkgUg5d-28" edge="1">
          <mxGeometry relative="1" as="geometry">
            <mxPoint x="62" y="480" as="sourcePoint" />
            <mxPoint x="450" y="450" as="targetPoint" />
          </mxGeometry>
        </mxCell>
        <mxCell id="2YyOYfQbQqB_2xkgUg5d-30" value="NivelSenioridade" style="ellipse;whiteSpace=wrap;html=1;align=center;" parent="1" vertex="1">
          <mxGeometry x="-25" y="500" width="90" height="30" as="geometry" />
        </mxCell>
        <mxCell id="2YyOYfQbQqB_2xkgUg5d-31" value="" style="endArrow=none;html=1;rounded=0;exitX=0.5;exitY=1;exitDx=0;exitDy=0;entryX=0.5;entryY=0;entryDx=0;entryDy=0;" parent="1" source="2YyOYfQbQqB_2xkgUg5d-14" target="2YyOYfQbQqB_2xkgUg5d-30" edge="1">
          <mxGeometry relative="1" as="geometry">
            <mxPoint x="-13" y="480" as="sourcePoint" />
            <mxPoint x="375" y="450" as="targetPoint" />
          </mxGeometry>
        </mxCell>
        <mxCell id="2YyOYfQbQqB_2xkgUg5d-32" value="REGISTRA" style="shape=rhombus;perimeter=rhombusPerimeter;whiteSpace=wrap;html=1;align=center;" parent="1" vertex="1">
          <mxGeometry x="250" y="60" width="120" height="60" as="geometry" />
        </mxCell>
        <mxCell id="2YyOYfQbQqB_2xkgUg5d-37" value="" style="shape=link;html=1;rounded=0;entryX=1;entryY=0.5;entryDx=0;entryDy=0;exitX=0;exitY=0.5;exitDx=0;exitDy=0;" parent="1" source="2YyOYfQbQqB_2xkgUg5d-32" target="2YyOYfQbQqB_2xkgUg5d-1" edge="1">
          <mxGeometry relative="1" as="geometry">
            <mxPoint x="150" y="90" as="sourcePoint" />
            <mxPoint x="160" y="165" as="targetPoint" />
          </mxGeometry>
        </mxCell>
        <mxCell id="2YyOYfQbQqB_2xkgUg5d-38" value="1" style="resizable=0;html=1;whiteSpace=wrap;align=right;verticalAlign=bottom;" parent="2YyOYfQbQqB_2xkgUg5d-37" connectable="0" vertex="1">
          <mxGeometry x="1" relative="1" as="geometry">
            <mxPoint x="8" y="-1" as="offset" />
          </mxGeometry>
        </mxCell>
        <mxCell id="2YyOYfQbQqB_2xkgUg5d-39" value="INTERACAO" style="whiteSpace=wrap;html=1;align=center;" parent="1" vertex="1">
          <mxGeometry x="570" y="70" width="100" height="40" as="geometry" />
        </mxCell>
        <mxCell id="2YyOYfQbQqB_2xkgUg5d-41" value="" style="endArrow=none;html=1;rounded=0;entryX=0;entryY=0.5;entryDx=0;entryDy=0;exitX=1;exitY=0.5;exitDx=0;exitDy=0;" parent="1" source="2YyOYfQbQqB_2xkgUg5d-32" target="2YyOYfQbQqB_2xkgUg5d-39" edge="1">
          <mxGeometry relative="1" as="geometry">
            <mxPoint x="200" y="170" as="sourcePoint" />
            <mxPoint x="360" y="170" as="targetPoint" />
          </mxGeometry>
        </mxCell>
        <mxCell id="2YyOYfQbQqB_2xkgUg5d-42" value="N" style="resizable=0;html=1;whiteSpace=wrap;align=right;verticalAlign=bottom;" parent="2YyOYfQbQqB_2xkgUg5d-41" connectable="0" vertex="1">
          <mxGeometry x="1" relative="1" as="geometry" />
        </mxCell>
        <mxCell id="2YyOYfQbQqB_2xkgUg5d-43" value="Data" style="ellipse;whiteSpace=wrap;html=1;align=center;" parent="1" vertex="1">
          <mxGeometry x="470" y="30" width="55" height="20" as="geometry" />
        </mxCell>
        <mxCell id="2YyOYfQbQqB_2xkgUg5d-44" value="Texto" style="ellipse;whiteSpace=wrap;html=1;align=center;" parent="1" vertex="1">
          <mxGeometry x="550" y="25" width="60" height="20" as="geometry" />
        </mxCell>
        <mxCell id="2YyOYfQbQqB_2xkgUg5d-45" value="Tipo" style="ellipse;whiteSpace=wrap;html=1;align=center;" parent="1" vertex="1">
          <mxGeometry x="620" y="25" width="80" height="20" as="geometry" />
        </mxCell>
        <mxCell id="2YyOYfQbQqB_2xkgUg5d-46" value="" style="endArrow=none;html=1;rounded=0;exitX=1;exitY=1;exitDx=0;exitDy=0;entryX=0;entryY=0;entryDx=0;entryDy=0;" parent="1" source="2YyOYfQbQqB_2xkgUg5d-43" target="2YyOYfQbQqB_2xkgUg5d-39" edge="1">
          <mxGeometry relative="1" as="geometry">
            <mxPoint x="190" y="140" as="sourcePoint" />
            <mxPoint x="350" y="140" as="targetPoint" />
          </mxGeometry>
        </mxCell>
        <mxCell id="2YyOYfQbQqB_2xkgUg5d-47" value="" style="endArrow=none;html=1;rounded=0;exitX=0.5;exitY=1;exitDx=0;exitDy=0;entryX=0.5;entryY=0;entryDx=0;entryDy=0;" parent="1" source="2YyOYfQbQqB_2xkgUg5d-44" target="2YyOYfQbQqB_2xkgUg5d-39" edge="1">
          <mxGeometry relative="1" as="geometry">
            <mxPoint x="190" y="140" as="sourcePoint" />
            <mxPoint x="350" y="140" as="targetPoint" />
          </mxGeometry>
        </mxCell>
        <mxCell id="2YyOYfQbQqB_2xkgUg5d-48" value="" style="endArrow=none;html=1;rounded=0;exitX=0.5;exitY=1;exitDx=0;exitDy=0;entryX=0.75;entryY=0;entryDx=0;entryDy=0;" parent="1" source="2YyOYfQbQqB_2xkgUg5d-45" target="2YyOYfQbQqB_2xkgUg5d-39" edge="1">
          <mxGeometry relative="1" as="geometry">
            <mxPoint x="190" y="140" as="sourcePoint" />
            <mxPoint x="350" y="140" as="targetPoint" />
          </mxGeometry>
        </mxCell>
        <mxCell id="2YyOYfQbQqB_2xkgUg5d-49" value="Plataforma" style="ellipse;shape=doubleEllipse;margin=3;whiteSpace=wrap;html=1;align=center;" parent="1" vertex="1">
          <mxGeometry x="714.64" y="35" width="70" height="30" as="geometry" />
        </mxCell>
        <mxCell id="2YyOYfQbQqB_2xkgUg5d-50" value="" style="endArrow=none;html=1;rounded=0;entryX=0;entryY=0.5;entryDx=0;entryDy=0;exitX=1;exitY=0.5;exitDx=0;exitDy=0;" parent="1" source="2YyOYfQbQqB_2xkgUg5d-39" target="2YyOYfQbQqB_2xkgUg5d-49" edge="1">
          <mxGeometry relative="1" as="geometry">
            <mxPoint x="190" y="140" as="sourcePoint" />
            <mxPoint x="350" y="140" as="targetPoint" />
          </mxGeometry>
        </mxCell>
        <mxCell id="2YyOYfQbQqB_2xkgUg5d-54" value="IdInteracao" style="ellipse;whiteSpace=wrap;html=1;align=center;fontStyle=4;" parent="1" vertex="1">
          <mxGeometry x="710" y="80" width="90" height="20" as="geometry" />
        </mxCell>
        <mxCell id="2YyOYfQbQqB_2xkgUg5d-55" value="" style="endArrow=none;html=1;rounded=0;exitX=0;exitY=0.5;exitDx=0;exitDy=0;entryX=1;entryY=1;entryDx=0;entryDy=0;" parent="1" source="2YyOYfQbQqB_2xkgUg5d-54" target="2YyOYfQbQqB_2xkgUg5d-39" edge="1">
          <mxGeometry relative="1" as="geometry">
            <mxPoint x="549.9953390593274" y="205.85786437626905" as="sourcePoint" />
            <mxPoint x="580" y="130" as="targetPoint" />
          </mxGeometry>
        </mxCell>
        <mxCell id="2YyOYfQbQqB_2xkgUg5d-59" value="DataSinalizacao" style="ellipse;whiteSpace=wrap;html=1;align=center;" parent="1" vertex="1">
          <mxGeometry x="714.64" y="262.5" width="95.36" height="25" as="geometry" />
        </mxCell>
        <mxCell id="2YyOYfQbQqB_2xkgUg5d-60" value="Justificacao" style="ellipse;whiteSpace=wrap;html=1;align=center;" parent="1" vertex="1">
          <mxGeometry x="712.32" y="300" width="87.68" height="20" as="geometry" />
        </mxCell>
        <mxCell id="2YyOYfQbQqB_2xkgUg5d-61" value="" style="endArrow=none;html=1;rounded=0;exitX=0;exitY=0.5;exitDx=0;exitDy=0;entryX=0.863;entryY=0.988;entryDx=0;entryDy=0;entryPerimeter=0;" parent="1" source="2YyOYfQbQqB_2xkgUg5d-60" target="7O8cQRcP90IHf1YLFJv2-25" edge="1">
          <mxGeometry relative="1" as="geometry">
            <mxPoint x="194.64" y="300" as="sourcePoint" />
            <mxPoint x="674.64" y="320" as="targetPoint" />
          </mxGeometry>
        </mxCell>
        <mxCell id="2YyOYfQbQqB_2xkgUg5d-62" value="" style="endArrow=none;html=1;rounded=0;exitX=0;exitY=0.5;exitDx=0;exitDy=0;" parent="1" source="2YyOYfQbQqB_2xkgUg5d-59" edge="1">
          <mxGeometry relative="1" as="geometry">
            <mxPoint x="194.64" y="300" as="sourcePoint" />
            <mxPoint x="670" y="290" as="targetPoint" />
          </mxGeometry>
        </mxCell>
        <mxCell id="7O8cQRcP90IHf1YLFJv2-7" value="CASO" style="whiteSpace=wrap;html=1;align=center;" vertex="1" parent="1">
          <mxGeometry x="155" y="265" width="150" height="50" as="geometry" />
        </mxCell>
        <mxCell id="7O8cQRcP90IHf1YLFJv2-8" value="IdCaso" style="ellipse;whiteSpace=wrap;html=1;align=center;fontStyle=4;" vertex="1" parent="1">
          <mxGeometry x="55" y="315" width="65" height="20" as="geometry" />
        </mxCell>
        <mxCell id="7O8cQRcP90IHf1YLFJv2-12" value="Descricao" style="ellipse;whiteSpace=wrap;html=1;align=center;" vertex="1" parent="1">
          <mxGeometry x="40" y="280" width="80" height="20" as="geometry" />
        </mxCell>
        <mxCell id="7O8cQRcP90IHf1YLFJv2-13" value="AreaAtuacao" style="ellipse;whiteSpace=wrap;html=1;align=center;" vertex="1" parent="1">
          <mxGeometry x="20" y="242.5" width="80" height="20" as="geometry" />
        </mxCell>
        <mxCell id="7O8cQRcP90IHf1YLFJv2-14" value="DataAbertura" style="ellipse;whiteSpace=wrap;html=1;align=center;" vertex="1" parent="1">
          <mxGeometry x="75" y="220" width="80" height="20" as="geometry" />
        </mxCell>
        <mxCell id="7O8cQRcP90IHf1YLFJv2-15" value="DataFecho" style="ellipse;whiteSpace=wrap;html=1;align=center;" vertex="1" parent="1">
          <mxGeometry x="165" y="220" width="80" height="20" as="geometry" />
        </mxCell>
        <mxCell id="7O8cQRcP90IHf1YLFJv2-17" value="Estado" style="ellipse;whiteSpace=wrap;html=1;align=center;" vertex="1" parent="1">
          <mxGeometry x="250" y="220" width="80" height="20" as="geometry" />
        </mxCell>
        <mxCell id="7O8cQRcP90IHf1YLFJv2-19" value="" style="endArrow=none;html=1;rounded=0;entryX=0.5;entryY=1;entryDx=0;entryDy=0;exitX=0.75;exitY=0;exitDx=0;exitDy=0;" edge="1" parent="1" source="7O8cQRcP90IHf1YLFJv2-7" target="7O8cQRcP90IHf1YLFJv2-17">
          <mxGeometry relative="1" as="geometry">
            <mxPoint x="220" y="220" as="sourcePoint" />
            <mxPoint x="340" y="210" as="targetPoint" />
          </mxGeometry>
        </mxCell>
        <mxCell id="7O8cQRcP90IHf1YLFJv2-20" value="" style="endArrow=none;html=1;rounded=0;entryX=0.64;entryY=0.965;entryDx=0;entryDy=0;exitX=0.5;exitY=0;exitDx=0;exitDy=0;entryPerimeter=0;" edge="1" parent="1" source="7O8cQRcP90IHf1YLFJv2-7" target="7O8cQRcP90IHf1YLFJv2-15">
          <mxGeometry relative="1" as="geometry">
            <mxPoint x="165" y="215" as="sourcePoint" />
            <mxPoint x="205" y="260" as="targetPoint" />
          </mxGeometry>
        </mxCell>
        <mxCell id="7O8cQRcP90IHf1YLFJv2-21" value="" style="endArrow=none;html=1;rounded=0;entryX=0.5;entryY=1;entryDx=0;entryDy=0;exitX=0.25;exitY=0;exitDx=0;exitDy=0;" edge="1" parent="1" source="7O8cQRcP90IHf1YLFJv2-7" target="7O8cQRcP90IHf1YLFJv2-14">
          <mxGeometry relative="1" as="geometry">
            <mxPoint x="165" y="190" as="sourcePoint" />
            <mxPoint x="205" y="215" as="targetPoint" />
          </mxGeometry>
        </mxCell>
        <mxCell id="7O8cQRcP90IHf1YLFJv2-22" value="" style="endArrow=none;html=1;rounded=0;entryX=1;entryY=0.5;entryDx=0;entryDy=0;exitX=0;exitY=0.5;exitDx=0;exitDy=0;" edge="1" parent="1" source="7O8cQRcP90IHf1YLFJv2-7" target="7O8cQRcP90IHf1YLFJv2-13">
          <mxGeometry relative="1" as="geometry">
            <mxPoint x="325" y="265" as="sourcePoint" />
            <mxPoint x="105" y="260" as="targetPoint" />
          </mxGeometry>
        </mxCell>
        <mxCell id="7O8cQRcP90IHf1YLFJv2-23" value="" style="endArrow=none;html=1;rounded=0;entryX=1;entryY=0.5;entryDx=0;entryDy=0;exitX=0;exitY=0.75;exitDx=0;exitDy=0;" edge="1" parent="1" source="7O8cQRcP90IHf1YLFJv2-7" target="7O8cQRcP90IHf1YLFJv2-12">
          <mxGeometry relative="1" as="geometry">
            <mxPoint x="288" y="265" as="sourcePoint" />
            <mxPoint x="295" y="225" as="targetPoint" />
          </mxGeometry>
        </mxCell>
        <mxCell id="7O8cQRcP90IHf1YLFJv2-24" value="" style="endArrow=none;html=1;rounded=0;entryX=1;entryY=0.5;entryDx=0;entryDy=0;exitX=0;exitY=1;exitDx=0;exitDy=0;" edge="1" parent="1" source="7O8cQRcP90IHf1YLFJv2-7" target="7O8cQRcP90IHf1YLFJv2-8">
          <mxGeometry relative="1" as="geometry">
            <mxPoint x="250" y="265" as="sourcePoint" />
            <mxPoint x="245" y="235" as="targetPoint" />
          </mxGeometry>
        </mxCell>
        <mxCell id="7O8cQRcP90IHf1YLFJv2-25" value="SINALIZACAO" style="shape=associativeEntity;whiteSpace=wrap;html=1;align=center;" vertex="1" parent="1">
          <mxGeometry x="570" y="267.5" width="100" height="45" as="geometry" />
        </mxCell>
        <mxCell id="7O8cQRcP90IHf1YLFJv2-26" value="IdSinalizacao" style="ellipse;whiteSpace=wrap;html=1;align=center;fontStyle=4;" vertex="1" parent="1">
          <mxGeometry x="714.64" y="230" width="85.36" height="20" as="geometry" />
        </mxCell>
        <mxCell id="7O8cQRcP90IHf1YLFJv2-27" value="" style="endArrow=none;html=1;rounded=0;exitX=1;exitY=0;exitDx=0;exitDy=0;entryX=0;entryY=0.5;entryDx=0;entryDy=0;" edge="1" parent="1" source="7O8cQRcP90IHf1YLFJv2-25" target="7O8cQRcP90IHf1YLFJv2-26">
          <mxGeometry relative="1" as="geometry">
            <mxPoint x="474.64" y="480" as="sourcePoint" />
            <mxPoint x="634.64" y="480" as="targetPoint" />
          </mxGeometry>
        </mxCell>
        <mxCell id="7O8cQRcP90IHf1YLFJv2-28" value="REGISTRA" style="shape=rhombus;perimeter=rhombusPerimeter;whiteSpace=wrap;html=1;align=center;" vertex="1" parent="1">
          <mxGeometry x="410" y="437.5" width="100" height="45" as="geometry" />
        </mxCell>
        <mxCell id="7O8cQRcP90IHf1YLFJv2-29" value="" style="endArrow=none;html=1;rounded=0;entryX=1;entryY=0.5;entryDx=0;entryDy=0;exitX=0;exitY=0.5;exitDx=0;exitDy=0;" edge="1" parent="1" source="7O8cQRcP90IHf1YLFJv2-28" target="2YyOYfQbQqB_2xkgUg5d-14">
          <mxGeometry relative="1" as="geometry">
            <mxPoint x="470" y="590" as="sourcePoint" />
            <mxPoint x="280" y="460" as="targetPoint" />
          </mxGeometry>
        </mxCell>
        <mxCell id="7O8cQRcP90IHf1YLFJv2-30" value="1" style="resizable=0;html=1;whiteSpace=wrap;align=right;verticalAlign=bottom;" connectable="0" vertex="1" parent="7O8cQRcP90IHf1YLFJv2-29">
          <mxGeometry x="1" relative="1" as="geometry">
            <mxPoint x="14" as="offset" />
          </mxGeometry>
        </mxCell>
        <mxCell id="7O8cQRcP90IHf1YLFJv2-31" value="" style="endArrow=none;html=1;rounded=0;exitX=1;exitY=0.5;exitDx=0;exitDy=0;entryX=0.554;entryY=1;entryDx=0;entryDy=0;entryPerimeter=0;" edge="1" parent="1" source="7O8cQRcP90IHf1YLFJv2-28" target="7O8cQRcP90IHf1YLFJv2-25">
          <mxGeometry relative="1" as="geometry">
            <mxPoint x="550" y="350" as="sourcePoint" />
            <mxPoint x="640" y="370" as="targetPoint" />
            <Array as="points">
              <mxPoint x="625" y="460" />
            </Array>
          </mxGeometry>
        </mxCell>
        <mxCell id="7O8cQRcP90IHf1YLFJv2-32" value="N" style="resizable=0;html=1;whiteSpace=wrap;align=right;verticalAlign=bottom;" connectable="0" vertex="1" parent="7O8cQRcP90IHf1YLFJv2-31">
          <mxGeometry x="1" relative="1" as="geometry">
            <mxPoint x="-1" y="17" as="offset" />
          </mxGeometry>
        </mxCell>
        <mxCell id="7O8cQRcP90IHf1YLFJv2-33" value="PERTENCE_A" style="shape=rhombus;perimeter=rhombusPerimeter;whiteSpace=wrap;html=1;align=center;" vertex="1" parent="1">
          <mxGeometry x="565" y="180" width="110" height="40" as="geometry" />
        </mxCell>
        <mxCell id="7O8cQRcP90IHf1YLFJv2-34" value="" style="shape=link;html=1;rounded=0;entryX=0.5;entryY=1;entryDx=0;entryDy=0;exitX=0.5;exitY=0;exitDx=0;exitDy=0;" edge="1" parent="1" source="7O8cQRcP90IHf1YLFJv2-33" target="2YyOYfQbQqB_2xkgUg5d-39">
          <mxGeometry relative="1" as="geometry">
            <mxPoint x="554.64" y="350" as="sourcePoint" />
            <mxPoint x="624.64" y="185" as="targetPoint" />
          </mxGeometry>
        </mxCell>
        <mxCell id="7O8cQRcP90IHf1YLFJv2-35" value="1" style="resizable=0;html=1;whiteSpace=wrap;align=right;verticalAlign=bottom;" connectable="0" vertex="1" parent="7O8cQRcP90IHf1YLFJv2-34">
          <mxGeometry x="1" relative="1" as="geometry">
            <mxPoint x="-3" y="19" as="offset" />
          </mxGeometry>
        </mxCell>
        <mxCell id="7O8cQRcP90IHf1YLFJv2-36" value="" style="endArrow=none;html=1;rounded=0;exitX=0.5;exitY=1;exitDx=0;exitDy=0;entryX=0.5;entryY=0;entryDx=0;entryDy=0;" edge="1" parent="1" source="7O8cQRcP90IHf1YLFJv2-33" target="7O8cQRcP90IHf1YLFJv2-25">
          <mxGeometry relative="1" as="geometry">
            <mxPoint x="554.64" y="350" as="sourcePoint" />
            <mxPoint x="714.64" y="350" as="targetPoint" />
          </mxGeometry>
        </mxCell>
        <mxCell id="7O8cQRcP90IHf1YLFJv2-37" value="N" style="resizable=0;html=1;whiteSpace=wrap;align=right;verticalAlign=bottom;" connectable="0" vertex="1" parent="7O8cQRcP90IHf1YLFJv2-36">
          <mxGeometry x="1" relative="1" as="geometry" />
        </mxCell>
        <mxCell id="7O8cQRcP90IHf1YLFJv2-54" value="ORIGINA" style="shape=rhombus;perimeter=rhombusPerimeter;whiteSpace=wrap;html=1;align=center;" vertex="1" parent="1">
          <mxGeometry x="380" y="260" width="120" height="60" as="geometry" />
        </mxCell>
        <mxCell id="7O8cQRcP90IHf1YLFJv2-55" value="" style="endArrow=none;html=1;rounded=0;entryX=1;entryY=0.5;entryDx=0;entryDy=0;exitX=0;exitY=0.5;exitDx=0;exitDy=0;" edge="1" parent="1" source="7O8cQRcP90IHf1YLFJv2-54" target="7O8cQRcP90IHf1YLFJv2-7">
          <mxGeometry relative="1" as="geometry">
            <mxPoint x="290" y="270" as="sourcePoint" />
            <mxPoint x="450" y="270" as="targetPoint" />
          </mxGeometry>
        </mxCell>
        <mxCell id="7O8cQRcP90IHf1YLFJv2-56" value="1" style="resizable=0;html=1;whiteSpace=wrap;align=right;verticalAlign=bottom;" connectable="0" vertex="1" parent="7O8cQRcP90IHf1YLFJv2-55">
          <mxGeometry x="1" relative="1" as="geometry">
            <mxPoint x="12" as="offset" />
          </mxGeometry>
        </mxCell>
        <mxCell id="7O8cQRcP90IHf1YLFJv2-57" value="Texto&lt;span style=&quot;background-color: transparent; color: light-dark(rgb(0, 0, 0), rgb(255, 255, 255));&quot;&gt;Adicional&lt;/span&gt;" style="ellipse;whiteSpace=wrap;html=1;align=center;" vertex="1" parent="1">
          <mxGeometry x="395" y="218.75" width="90" height="20" as="geometry" />
        </mxCell>
        <mxCell id="7O8cQRcP90IHf1YLFJv2-59" value="" style="endArrow=none;html=1;rounded=0;exitX=0.5;exitY=0;exitDx=0;exitDy=0;entryX=0.5;entryY=1;entryDx=0;entryDy=0;" edge="1" parent="1" source="7O8cQRcP90IHf1YLFJv2-54" target="7O8cQRcP90IHf1YLFJv2-57">
          <mxGeometry relative="1" as="geometry">
            <mxPoint x="490" y="270" as="sourcePoint" />
            <mxPoint x="650" y="270" as="targetPoint" />
          </mxGeometry>
        </mxCell>
        <mxCell id="7O8cQRcP90IHf1YLFJv2-60" value="" style="endArrow=none;html=1;rounded=0;exitX=1;exitY=0.5;exitDx=0;exitDy=0;entryX=0;entryY=0.5;entryDx=0;entryDy=0;" edge="1" parent="1" source="7O8cQRcP90IHf1YLFJv2-54" target="7O8cQRcP90IHf1YLFJv2-25">
          <mxGeometry relative="1" as="geometry">
            <mxPoint x="390" y="270" as="sourcePoint" />
            <mxPoint x="550" y="270" as="targetPoint" />
          </mxGeometry>
        </mxCell>
        <mxCell id="7O8cQRcP90IHf1YLFJv2-61" value="M" style="resizable=0;html=1;whiteSpace=wrap;align=left;verticalAlign=bottom;" connectable="0" vertex="1" parent="7O8cQRcP90IHf1YLFJv2-60">
          <mxGeometry x="-1" relative="1" as="geometry" />
        </mxCell>
        <mxCell id="7O8cQRcP90IHf1YLFJv2-62" value="N" style="resizable=0;html=1;whiteSpace=wrap;align=right;verticalAlign=bottom;" connectable="0" vertex="1" parent="7O8cQRcP90IHf1YLFJv2-60">
          <mxGeometry x="1" relative="1" as="geometry" />
        </mxCell>
        <mxCell id="7O8cQRcP90IHf1YLFJv2-63" value="RECURSO_EDUCATIVO" style="whiteSpace=wrap;html=1;align=center;" vertex="1" parent="1">
          <mxGeometry x="-370" y="227.5" width="160" height="40" as="geometry" />
        </mxCell>
        <mxCell id="7O8cQRcP90IHf1YLFJv2-65" value="idRecurso" style="ellipse;whiteSpace=wrap;html=1;align=center;fontStyle=4;" vertex="1" parent="1">
          <mxGeometry x="-450" y="198.75" width="70" height="20" as="geometry" />
        </mxCell>
        <mxCell id="7O8cQRcP90IHf1YLFJv2-66" value="Titulo" style="ellipse;whiteSpace=wrap;html=1;align=center;" vertex="1" parent="1">
          <mxGeometry x="-370" y="190" width="70" height="20" as="geometry" />
        </mxCell>
        <mxCell id="7O8cQRcP90IHf1YLFJv2-67" value="Url" style="ellipse;whiteSpace=wrap;html=1;align=center;" vertex="1" parent="1">
          <mxGeometry x="-280" y="191.25" width="70" height="17.5" as="geometry" />
        </mxCell>
        <mxCell id="7O8cQRcP90IHf1YLFJv2-68" value="&lt;code&gt;Formato&lt;/code&gt;&lt;span class=&quot;citation-331 citation-end-331&quot;&gt; &lt;sup data-turn-source-index=&quot;5&quot; class=&quot;superscript&quot;&gt;&lt;/sup&gt;&lt;/span&gt;" style="ellipse;whiteSpace=wrap;html=1;align=center;" vertex="1" parent="1">
          <mxGeometry x="-200" y="200" width="70" height="20" as="geometry" />
        </mxCell>
        <mxCell id="7O8cQRcP90IHf1YLFJv2-69" value="" style="endArrow=none;html=1;rounded=0;exitX=1;exitY=1;exitDx=0;exitDy=0;entryX=0;entryY=0;entryDx=0;entryDy=0;" edge="1" parent="1" source="7O8cQRcP90IHf1YLFJv2-65" target="7O8cQRcP90IHf1YLFJv2-63">
          <mxGeometry relative="1" as="geometry">
            <mxPoint x="-340" y="370" as="sourcePoint" />
            <mxPoint x="-180" y="370" as="targetPoint" />
          </mxGeometry>
        </mxCell>
        <mxCell id="7O8cQRcP90IHf1YLFJv2-70" value="" style="endArrow=none;html=1;rounded=0;exitX=0.5;exitY=1;exitDx=0;exitDy=0;entryX=0.25;entryY=0;entryDx=0;entryDy=0;" edge="1" parent="1" source="7O8cQRcP90IHf1YLFJv2-66" target="7O8cQRcP90IHf1YLFJv2-63">
          <mxGeometry relative="1" as="geometry">
            <mxPoint x="-380" y="226" as="sourcePoint" />
            <mxPoint x="-370" y="243" as="targetPoint" />
          </mxGeometry>
        </mxCell>
        <mxCell id="7O8cQRcP90IHf1YLFJv2-71" value="" style="endArrow=none;html=1;rounded=0;exitX=0.5;exitY=1;exitDx=0;exitDy=0;entryX=0.75;entryY=0;entryDx=0;entryDy=0;" edge="1" parent="1" source="7O8cQRcP90IHf1YLFJv2-67" target="7O8cQRcP90IHf1YLFJv2-63">
          <mxGeometry relative="1" as="geometry">
            <mxPoint x="-325" y="220" as="sourcePoint" />
            <mxPoint x="-330" y="243" as="targetPoint" />
          </mxGeometry>
        </mxCell>
        <mxCell id="7O8cQRcP90IHf1YLFJv2-72" value="" style="endArrow=none;html=1;rounded=0;exitX=0;exitY=1;exitDx=0;exitDy=0;entryX=1;entryY=0;entryDx=0;entryDy=0;" edge="1" parent="1" source="7O8cQRcP90IHf1YLFJv2-68" target="7O8cQRcP90IHf1YLFJv2-63">
          <mxGeometry relative="1" as="geometry">
            <mxPoint x="-235" y="219" as="sourcePoint" />
            <mxPoint x="-250" y="243" as="targetPoint" />
          </mxGeometry>
        </mxCell>
        <mxCell id="7O8cQRcP90IHf1YLFJv2-75" value="Email" style="ellipse;whiteSpace=wrap;html=1;align=center;" vertex="1" parent="1">
          <mxGeometry x="30" y="20" width="70" height="25" as="geometry" />
        </mxCell>
      </root>
    </mxGraphModel>
  </diagram>
</mxfile>
